<?xml version="1.0" encoding="UTF-8" standalone="no"?>
<svg
   xmlns:dc="http://purl.org/dc/elements/1.1/"
   xmlns:cc="http://creativecommons.org/ns#"
   xmlns:rdf="http://www.w3.org/1999/02/22-rdf-syntax-ns#"
   xmlns:svg="http://www.w3.org/2000/svg"
   xmlns="http://www.w3.org/2000/svg"
   xmlns:sodipodi="http://sodipodi.sourceforge.net/DTD/sodipodi-0.dtd"
   xmlns:inkscape="http://www.inkscape.org/namespaces/inkscape"
   version="1.1"
   id="svg2"
   xml:space="preserve"
   width="711.73334"
   height="582.38666"
   viewBox="0 0 711.73334 582.38666"
   sodipodi:docname="hand_growth.eps"><metadata
     id="metadata8"><rdf:RDF><cc:Work
         rdf:about=""><dc:format>image/svg+xml</dc:format><dc:type
           rdf:resource="http://purl.org/dc/dcmitype/StillImage" /></cc:Work></rdf:RDF></metadata><defs
     id="defs6" /><sodipodi:namedview
     pagecolor="#ffffff"
     bordercolor="#666666"
     borderopacity="1"
     objecttolerance="10"
     gridtolerance="10"
     guidetolerance="10"
     inkscape:pageopacity="0"
     inkscape:pageshadow="2"
     inkscape:window-width="640"
     inkscape:window-height="480"
     id="namedview4" /><g
     id="g10"
     inkscape:groupmode="layer"
     inkscape:label="ink_ext_XXXXXX"
     transform="matrix(1.3333333,0,0,-1.3333333,0,582.38667)"><g
       id="g12"
       transform="scale(0.1)"><path
         d="m 967.504,561.25 c 0,0 552.876,625.41 777.876,770.41 l 305.01,155 960,-125 c 0,0 140,-50 310,95 l 355,235 c 0,0 295,165 305,260 0,0 200,225 190,320 0,0 205,280 200,375 h -35 c 0,0 -100,95 -235,-80 0,0 -135,-65 -170,-160 0,0 -115,5 -155,-75"
         style="fill:none;stroke:#100f0d;stroke-width:20;stroke-linecap:butt;stroke-linejoin:miter;stroke-miterlimit:10;stroke-dasharray:none;stroke-opacity:1"
         id="path14" /><path
         d="m 3200.39,1476.66 c 0,0 240,200 390,270 0,0 240,150 330,250 0,0 215,223.41 285,384.2 0,0 70,80.8 80,165.8 0,0 -165,115 -315,-190 0,0 -220,-120 -315,-200"
         style="fill:none;stroke:#100f0d;stroke-width:20;stroke-linecap:butt;stroke-linejoin:miter;stroke-miterlimit:10;stroke-dasharray:none;stroke-opacity:1"
         id="path16" /><path
         d="m 967.504,1526.66 752.876,645 c 0,0 200,183.41 425.01,209.2 412.39,47.28 523.6,-108.09 523.6,-108.09 128.6,-93.89 375.52,-86.11 375.52,-86.11 49.13,40 135.88,15 135.88,15 410,160 470,0 470,0 70,-165 -160,-225 -160,-225 -265,-190 -600,-170 -600,-170 -340,-130 -465,-30 -465,-30"
         style="fill:none;stroke:#100f0d;stroke-width:20;stroke-linecap:butt;stroke-linejoin:miter;stroke-miterlimit:10;stroke-dasharray:none;stroke-opacity:1"
         id="path18" /><path
         d="m 2725.39,2501.66 c 0,0 -410,63.41 -580,-120.8"
         style="fill:none;stroke:#100f0d;stroke-width:20;stroke-linecap:butt;stroke-linejoin:miter;stroke-miterlimit:10;stroke-dasharray:none;stroke-opacity:1"
         id="path20" /><path
         d="m 3800.39,2296.66 c 0,0 85,78.41 155,84.2 0,0 117.04,222.2 196.01,176.5"
         style="fill:none;stroke:#100f0d;stroke-width:20;stroke-linecap:butt;stroke-linejoin:miter;stroke-miterlimit:10;stroke-dasharray:none;stroke-opacity:1"
         id="path22" /><path
         d="m 4250.39,2671.66 c 0,0 -105,211.09 -300,-159.46 l -75,-82.09 -75,-65.52"
         style="fill:none;stroke:#100f0d;stroke-width:20;stroke-linecap:butt;stroke-linejoin:miter;stroke-miterlimit:10;stroke-dasharray:none;stroke-opacity:1"
         id="path24" /><path
         d="m 4229.31,2700.56 c 0,0 56.08,105.28 -53.92,110.69 0,0 -145,-11.79 -260,-263.19 0,0 -135,-95.53 -172.5,-183.47"
         style="fill:none;stroke:#100f0d;stroke-width:20;stroke-linecap:butt;stroke-linejoin:miter;stroke-miterlimit:10;stroke-dasharray:none;stroke-opacity:1"
         id="path26" /><path
         d="m 3695.39,2471.66 155,116.26 c 0,0 113.05,177.44 204.23,159.6"
         style="fill:none;stroke:#100f0d;stroke-width:20;stroke-linecap:butt;stroke-linejoin:miter;stroke-miterlimit:10;stroke-dasharray:none;stroke-opacity:1"
         id="path28" /><path
         d="m 3165.39,2672.4 c 0,0 35,154.26 115,24.26 0,0 40,101.48 160,-24.26 0,0 130,94.26 175,-30.74 0,0 127.5,18.15 127.5,-129.46 0,0 -72.5,-44.1 -22.5,-122.38 0,0 240,-25.56 22.5,-169.36 l -87.5,-63.8 c 0,0 -61.67,193.33 -475,45 0,0 -66.67,28.33 -135.88,-15 0,0 -267.46,-18.33 -399.79,110 l -32.72,22.81 c 0,0 38.39,220.97 248.39,244.08 0,0 0,95.23 115,46.67 0,0 -40,267.92 190,62.18"
         style="fill:#3f333a;fill-opacity:1;fill-rule:nonzero;stroke:none"
         id="path30" /><path
         d="m 3200.39,3208.44 -54.62,-51.78 77.25,135 z m -110,-51.78 v 225 c 124.61,-80 0,-225 0,-225 z m 652.5,270 c 0,0 -147.5,80 -372.5,-20 0,0 180,130 95,345 0,0 -105,-105 -170,-240 0,0 -60,-15 -95,-55 l -86.46,90 c 0,0 -143.54,205 -388.54,260 0,0 15,-225 275,-365 0,0 -30,-150 20,-265 l -165,-10 c 0,0 -375,172.89 -520,106.44 l 545,-146.44 c 0,0 210,-25 190,-190 l 20,-326.44 60,26.44 c 0,0 -45,230 -35,350 0,0 75,130 245,115 0,0 230,-20 275,45 0,0 -126.46,-40 -260.74,0 0,0 -52.16,15 -260.72,-110 l 41.46,65 c 0,0 145,70 165,220 l 105,25 85,-35 -60,65 c 0,0 220,80 292.5,50"
         style="fill:#69c52f;fill-opacity:1;fill-rule:nonzero;stroke:none"
         id="path32" /></g></g></svg>
